<?xml version="1.0" standalone="no"?>
<!DOCTYPE svg PUBLIC "-//W3C//DTD SVG 20010904//EN"
 "http://www.w3.org/TR/2001/REC-SVG-20010904/DTD/svg10.dtd">
<svg version="1.0" xmlns="http://www.w3.org/2000/svg"
 width="700.000000pt" height="700.000000pt" viewBox="0 0 700.000000 700.000000"
 preserveAspectRatio="xMidYMid meet">
<metadata>
Created by potrace 1.11, written by Peter Selinger 2001-2013
</metadata>
<g transform="translate(0.000000,700.000000) scale(0.100000,-0.100000)"
fill="#000000" stroke="none">
<path d="M1450 3435 l0 -2315 518 2 517 3 3 738 2 737 351 -2 352 -3 198 -285
c109 -157 327 -472 485 -700 158 -228 301 -432 317 -453 l29 -37 634 0 c349 0
634 3 634 6 0 6 -44 68 -480 684 -605 854 -681 962 -678 965 2 2 47 23 100 48
134 62 252 141 349 234 296 282 434 691 416 1233 -16 449 -129 768 -356 999
-99 101 -170 152 -310 223 -253 129 -572 200 -1021 228 -92 5 -582 10 -1112
10 l-948 0 0 -2315z m2087 1404 c119 -13 263 -49 335 -83 118 -56 201 -161
240 -303 31 -113 31 -382 0 -496 -44 -162 -126 -278 -242 -344 -30 -18 -95
-43 -144 -57 -164 -48 -275 -56 -777 -56 l-459 0 0 675 0 675 475 0 c272 0
517 -5 572 -11z"/>
<path d="M5550 363 c0 -48 4 -73 9 -64 6 9 11 10 15 2 4 -6 18 -11 32 -11 53
0 52 101 -1 107 -17 3 -17 1 3 -9 19 -9 22 -18 20 -47 -3 -31 -7 -36 -28 -36
-26 0 -25 -4 -31 118 0 9 -4 17 -10 17 -5 0 -9 -35 -9 -77z"/>
<path d="M5683 365 c0 -44 2 -61 4 -37 2 23 2 59 0 80 -2 20 -4 1 -4 -43z"/>
<path d="M5853 365 c0 -44 2 -61 4 -37 2 23 2 59 0 80 -2 20 -4 1 -4 -43z"/>
<path d="M5379 416 c-2 -10 -2 -43 -1 -72 3 -43 7 -54 20 -53 11 0 12 2 5 6
-16 6 -17 75 -1 91 8 8 9 12 1 12 -6 0 -13 8 -15 18 -4 15 -5 15 -9 -2z"/>
<path d="M6019 416 c-2 -10 -2 -43 -1 -72 3 -43 7 -54 20 -53 11 0 12 2 5 6
-8 3 -13 23 -13 49 0 28 4 44 13 44 8 0 9 3 1 8 -6 4 -13 14 -16 22 -4 12 -6
11 -9 -4z"/>
<path d="M6081 418 c0 -9 -7 -19 -13 -21 -10 -4 -10 -6 0 -6 8 -1 12 -18 12
-51 0 -41 3 -50 18 -49 10 0 12 3 5 6 -16 6 -17 75 -1 91 8 8 9 12 1 12 -6 0
-14 8 -16 18 -4 15 -5 15 -6 0z"/>
<path d="M4501 393 c-2 -21 23 -103 31 -103 4 0 13 19 19 43 l12 42 12 -39
c16 -56 29 -54 44 4 7 27 17 50 21 50 4 0 14 -22 21 -50 7 -27 16 -50 21 -50
4 0 13 19 19 43 l12 42 14 -42 c8 -24 18 -43 22 -43 4 0 13 23 20 50 7 28 17
50 21 50 4 0 14 -22 21 -50 7 -27 16 -50 21 -50 4 0 13 19 19 43 l12 42 14
-42 c8 -24 18 -43 21 -43 4 0 14 25 23 55 9 30 13 55 8 55 -5 0 -11 -12 -15
-27 -12 -55 -17 -59 -28 -21 -15 50 -28 51 -42 3 l-11 -40 -13 43 c-9 29 -19
42 -31 42 -13 0 -22 -13 -30 -42 l-12 -43 -12 39 c-16 54 -30 55 -42 4 -10
-43 -15 -40 -27 15 -10 44 -43 36 -57 -15 l-12 -43 -12 39 c-16 54 -31 56 -39
5 -7 -47 -16 -44 -32 9 -7 20 -12 31 -13 25z"/>
<path d="M5011 323 c-1 -45 2 -73 9 -73 5 0 10 10 10 23 0 20 4 23 30 19 25
-4 31 0 41 24 17 44 -6 79 -53 79 l-35 1 -2 -73z m75 43 c10 -41 1 -61 -26
-61 -27 0 -36 20 -26 61 8 32 44 32 52 0z"/>
<path d="M5142 340 c1 -49 2 -51 5 -13 3 30 11 47 26 58 22 15 22 15 -6 13
-26 -2 -27 -4 -25 -58z"/>
<path d="M5213 345 c0 -33 2 -45 4 -27 2 18 2 45 0 60 -2 15 -4 0 -4 -33z"/>
<path d="M5260 345 c0 -32 2 -56 4 -54 8 8 10 98 3 105 -4 4 -7 -19 -7 -51z"/>
<path d="M5300 392 c21 -7 26 -16 31 -57 l6 -50 -1 55 c-1 54 -2 55 -31 57
-28 2 -28 1 -5 -5z"/>
<path d="M5447 393 c-4 -3 -7 -11 -7 -17 0 -6 5 -5 12 2 19 19 48 15 48 -8 0
-14 -7 -20 -24 -20 -29 0 -49 -22 -40 -43 4 -12 17 -16 48 -15 l41 2 -4 41
c-2 22 -8 46 -13 53 -11 13 -50 17 -61 5z m51 -70 c-4 -22 -48 -31 -48 -10 0
19 10 27 32 27 13 0 18 -6 16 -17z"/>
<path d="M5728 375 c-8 -18 -9 -35 -2 -53 8 -22 16 -27 43 -27 20 0 36 6 39
13 3 11 0 11 -16 1 -23 -14 -52 -6 -52 16 0 11 11 15 40 15 44 0 47 5 24 38
-21 31 -61 29 -76 -3z m62 11 c0 -2 3 -11 6 -20 5 -13 -1 -16 -25 -16 -29 0
-41 16 -24 33 7 8 43 10 43 3z"/>
<path d="M5907 382 c-19 -21 -21 -45 -7 -73 14 -25 65 -26 75 -1 5 14 4 15 -6
5 -19 -19 -47 -16 -59 7 -10 19 -8 20 35 20 49 0 53 5 29 38 -18 27 -45 28
-67 4z m53 4 c0 -2 3 -11 6 -20 5 -13 -1 -16 -25 -16 -29 0 -41 16 -24 33 7 8
43 10 43 3z"/>
<path d="M6146 384 c-18 -18 -20 -47 -6 -75 14 -25 65 -26 75 -1 5 14 4 15 -6
5 -19 -19 -47 -16 -59 7 -10 18 -8 20 29 20 47 0 56 9 35 38 -18 26 -46 28
-68 6z m54 2 c0 -2 3 -11 6 -20 5 -13 -1 -16 -30 -16 -34 0 -36 2 -26 20 9 17
50 30 50 16z"/>
<path d="M6262 340 c1 -49 2 -51 5 -13 3 30 11 47 26 58 22 15 22 15 -6 13
-26 -2 -27 -4 -25 -58z"/>
<path d="M6330 386 c-16 -20 -1 -41 35 -50 33 -8 33 -36 1 -36 -13 0 -26 6
-29 13 -2 6 -8 9 -12 4 -15 -13 11 -29 41 -25 43 5 46 42 5 56 -17 6 -31 16
-31 22 0 18 29 23 47 9 14 -12 16 -12 11 1 -6 21 -52 24 -68 6z"/>
<path d="M6498 375 c-24 -53 26 -109 68 -75 17 15 19 71 2 88 -21 21 -57 14
-70 -13z m65 -6 c15 -24 0 -69 -23 -69 -27 0 -42 32 -30 65 11 29 36 31 53 4z"/>
<path d="M6622 345 c1 -46 2 -51 5 -20 3 22 12 48 20 58 10 10 12 17 5 17 -7
0 -12 -6 -12 -12 0 -9 -4 -8 -10 2 -7 10 -9 -3 -8 -45z"/>
<path d="M6692 388 c-17 -17 -15 -73 3 -88 8 -7 25 -10 40 -6 26 7 31 0 16
-23 -5 -8 -19 -12 -35 -9 -14 3 -26 1 -26 -3 0 -13 54 -11 68 3 7 7 12 39 12
72 l0 61 -33 2 c-18 2 -39 -3 -45 -9z m59 -22 c22 -48 -27 -88 -54 -44 -8 12
-8 24 1 42 15 32 39 33 53 2z"/>
<path d="M4960 300 c0 -5 5 -10 10 -10 6 0 10 5 10 10 0 6 -4 10 -10 10 -5 0
-10 -4 -10 -10z"/>
<path d="M6440 300 c0 -5 5 -10 10 -10 6 0 10 5 10 10 0 6 -4 10 -10 10 -5 0
-10 -4 -10 -10z"/>
</g>
</svg>
